<?xml version="1.0" encoding="UTF-8"?> <svg xmlns="http://www.w3.org/2000/svg" viewBox="0 0 2380.8 1388.9"><defs><style>.cls-1{fill:#dfebfd;}.cls-2{fill:#d2e2f9;}.cls-3{fill:#b4cffc;}.cls-4{fill:#9ec3f6;}.cls-5{fill:#fff;}.cls-6{fill:#c0d8fb;}.cls-7{fill:#f99746;}.cls-8{fill:#f0f6ff;}.cls-9{fill:#2c3a64;}.cls-10{fill:#97bdff;}.cls-11{fill:#4c88f2;}.cls-12{fill:#ed7d2b;}.cls-13{fill:#2b478b;}.cls-14{fill:#233862;}.cls-15{fill:#ed985f;}.cls-16{fill:#ffb27d;}.cls-17{fill:#f58f3e;}.cls-18{fill:#ebf3fa;}.cls-19{fill:#ed975d;}.cls-20{fill:#cbe1fd;}.cls-21{fill:#2e3552;}</style></defs><g id="Layer_2" data-name="Layer 2"><g id="Layer_1-2" data-name="Layer 1"><g id="Layer_2-2" data-name="Layer 2"><g id="Слой_1" data-name="Слой 1"><path class="cls-1" d="M542.8,962.9s124.9,64.9,111.4,87.4-134-82.3-134-82.3-128,63-155.4,105.7c0,0,155.5,20.6,136.9,39.1s-181.5,4.5-181.5,4.5-100.6,88.7-52.1,153.5,100.2,62.1,116.1,49.8,92-112,102.8-99.4-21,95.3-61.6,123.4c0,0,133.3,38.4,170.3-19.4s16.9-100.6,40.5-135.9,51.6-52.6,47.5-28.9-54.4,75.3-52.6,120.1-1.2,77.7,48.2,35.8,113.4-136.6,89-184.7l-3-6a28.1,28.1,0,0,1,3,6c12.6-5,49.1,1.3,76.3,7.2,4.4,1.2,10.7,2.7,19.5,4.4h0l9.2,2.3c57.9,17,126.6,86,126.6,86l11.3-8.4c-58.2-83.8-153.7-91.8-153.7-91.8-71-12.3-113.6-47.7-113.6-47.7s21.6-138.3-86.6-150.7C657.4,932.9,584.4,933.5,542.8,962.9Z"></path><path class="cls-1" d="M702.3,502s20.2,107.9-.1,110.4-13.8-121.8-13.8-121.8S588.2,442.2,548.9,446c0,0,62,105.4,41.7,102.8s-90-109.3-90-109.3-102.8-19.1-119.3,41.8,10,91.4,25.2,95.2,113,2.7,110.4,15.4-68.6,32.9-105.4,21.4c0,0,40.5,100.3,93.8,95.3s69.9-38,102.9-40.5,57.1,6.4,40.6,15.3-72.4,2.8-99,25.5-48.3,36.5,1.2,46.7,138.3,4,156.1-34l2.2-4.8a17.4,17.4,0,0,1-2.2,4.8c9.1,5.3,22.8,30.7,32.3,50.2,1.3,3.3,3.5,7.9,6.6,14.2h0c1.3,2.8,2.3,5.1,3,6.7,17.4,43.7,8,119.1,8,119.1l10.6,2.8c23.5-75.9-17.5-138.4-17.5-138.4-26.5-49.6-25.1-92.7-25.1-92.7s95.2-53.2,50.9-125.6C775.9,557.9,740.4,513.4,702.3,502Z"></path><path class="cls-1" d="M1929.4,226.8c-26.3-97-190-66.7-190-66.7S1628.3,329.8,1596,333.8s66.7-163.6,66.7-163.6c-62.7-6.1-222.3,70.7-222.3,70.7s10.1,198-22.2,194,0-175.8,0-175.8C1357.5,277.3,1301,348,1301,348c-70.7,115.2,80.8,200,80.8,200s2,68.7-40.4,147.5h0s-9.6,14.5-19.3,39.3h16.5c1.4-4.4,2.9-8.7,4.5-12.8h0v-.2c1.1-2.5,2.7-6.2,4.8-10.6h0c5-9.9,8.4-17.2,10.6-22.5h0c15.1-31,36.9-71.4,51.4-79.9a30.8,30.8,0,0,1-3.5-7.6l3.5,7.6c28.3,60.6,169.8,70.7,248.6,54.5s44.4-38.3,2-74.4S1529.3,562.2,1503,548s12.1-28.3,64.7-24.2,78.8,56.5,163.6,64.6,149.6-151.5,149.6-151.5c-58.6,18.2-163.7-14.2-167.8-34.4s151.6-18.2,175.8-24.2S1955.6,323.7,1929.4,226.8Z"></path><path class="cls-2" d="M2149.6,613.6H1920.7a33.2,33.2,0,0,0-33.2,33.2V747.2a30.6,30.6,0,0,0,30.5,30.5h5.9l-11,46.6,69.2-46.6h169.5a33.4,33.4,0,0,0,33.2-33.2V648.7A35.2,35.2,0,0,0,2149.6,613.6Z"></path><path class="cls-3" d="M2155.7,686.5H1917a5.9,5.9,0,0,1-5.9-5.9h0a5.8,5.8,0,0,1,5.9-5.9h238.7a5.9,5.9,0,0,1,5.9,5.9h0A5.9,5.9,0,0,1,2155.7,686.5Z"></path><path class="cls-3" d="M2155.7,713H1917a5.9,5.9,0,0,1-5.9-5.9h0a5.8,5.8,0,0,1,5.9-5.9h238.7a5.9,5.9,0,0,1,5.9,5.9h0A5.9,5.9,0,0,1,2155.7,713Z"></path><path class="cls-3" d="M2155.7,739.4H1917a5.8,5.8,0,0,1-5.9-5.9h0a5.8,5.8,0,0,1,5.9-5.9h238.7a5.9,5.9,0,0,1,5.9,5.9h0A5.8,5.8,0,0,1,2155.7,739.4Z"></path><path class="cls-3" d="M2025.7,645.4H1924.3a7.1,7.1,0,0,1-7-7h0a7.1,7.1,0,0,1,7-7h101.4a7,7,0,0,1,7,7h0A7,7,0,0,1,2025.7,645.4Z"></path><rect class="cls-3" x="2046.2" y="631.3" width="72.1" height="14.07" rx="6"></rect><polygon class="cls-4" points="1685.3 74.5 1553.3 93.3 1640.9 33.6 1645.4 52.7 1677.5 58.5 1685.3 74.5"></polygon><polygon class="cls-5" points="1553.3 93.3 1663.2 36.7 1770.8 31.3 1553.3 93.3"></polygon><polygon class="cls-5" points="1640.9 33.6 1553.3 93.3 1621.2 0 1640.9 33.6"></polygon><path class="cls-6" d="M1468.7,142.7V1315.4a52.3,52.3,0,0,1-52.3,52.3H759.9a52.4,52.4,0,0,1-52.4-52.3h0V142.7a52.4,52.4,0,0,1,52.4-52.3h656.4a52.3,52.3,0,0,1,52.4,52.3Z"></path><rect class="cls-5" x="943.4" y="1086.1" width="354.3" height="133.99" rx="19.5"></rect><rect class="cls-7" x="862.3" y="908.3" width="354.3" height="118.8" rx="18.3"></rect><rect class="cls-8" x="718.7" y="90.4" width="736.7" height="491.07"></rect><path class="cls-9" d="M1381,485.8a6.4,6.4,0,0,1-5.4,7.1,6.3,6.3,0,0,1-5.6-2.1c-2.4-2.6-10.1-9.4-17.4-9.4-3.4,0-6.5,1.6-9.3,4.7-11.1,12.3,4.6,30.5,4.8,30.6a6.3,6.3,0,1,1-9.4,8.4c-8.2-9.2-19.7-31-4.8-47.4,5.3-5.9,11.8-8.9,18.8-8.9s12.6,2.3,19,6.9a48.6,48.6,0,0,1,7.6,6.7A6.1,6.1,0,0,1,1381,485.8Z"></path><path class="cls-9" d="M1340.6,483a4.6,4.6,0,0,1-4.6,4.6,4.2,4.2,0,0,1-3-1.2l-14.7-13.2a4.6,4.6,0,1,1,6-7c0,.1.1.1.1.2l14.7,13.2A4.5,4.5,0,0,1,1340.6,483Z"></path><path class="cls-10" d="M1326.2,479l-1.2.8a28.5,28.5,0,0,1-4.5,2.5h0a27.4,27.4,0,0,1-30-5.9c-16.6-16.4-38.5-27.9-65.5-34.1l-3.1-.6a180.5,180.5,0,0,0-27.4-3.7,24.5,24.5,0,0,1-22.8-22.2V415l-.4-4.2a17.5,17.5,0,0,1,15.8-19h2.1A242.5,242.5,0,0,1,1228,396a207.6,207.6,0,0,1,32,8.8c24.2,8.7,49.3,23.1,70,46.6a18.6,18.6,0,0,1-1.9,26.2A13.3,13.3,0,0,1,1326.2,479Z"></path><path class="cls-11" d="M1320.4,482.3a27.4,27.4,0,0,1-30-5.9c-16.5-16.4-38.4-27.9-65.4-34.1l-3.1-.6c2.4-22.3,4.8-45,4.8-45l1.3-.7a207.6,207.6,0,0,1,32,8.8s-5.1,22.4,13.4,33.3S1306.9,487,1320.4,482.3Z"></path><path class="cls-7" d="M1035.2,380.5c-9.4-8.5-6-22.7-5.9-23.3l9,2.5-4.5-1.2,4.5,1.2c0,.1-2,8.8,2.9,13.2Z"></path><path class="cls-7" d="M1161.7,380.5c9.5-8.5,6-22.7,5.9-23.3l-9,2.5,4.5-1.2-4.5,1.2c0,.1,2,8.8-2.9,13.2Z"></path><path class="cls-12" d="M953.5,387.7V581.5h240.7V387.7a15.8,15.8,0,0,0-15.8-15.8h-209a15.6,15.6,0,0,0-7.9,2.1,16.2,16.2,0,0,0-6.7,7.7A15.4,15.4,0,0,0,953.5,387.7Z"></path><path class="cls-7" d="M1008.9,387.7V581.5h240.7V387.7a15.8,15.8,0,0,0-15.8-15.8h-209A15.9,15.9,0,0,0,1008.9,387.7Z"></path><rect class="cls-10" x="1073.9" y="362.2" width="76.4" height="9.66"></rect><rect class="cls-11" x="1043.6" y="362.2" width="44.2" height="9.66"></rect><path class="cls-10" d="M1227.7,396.1,1216.5,410a4.8,4.8,0,0,1-6.7.7l-.7-.7-4.5-5.5-7.1-8.9a2.7,2.7,0,0,1,.4-3.9,3.6,3.6,0,0,1,1.8-.7h25.5a3.3,3.3,0,0,1,3.2,3.2A3.2,3.2,0,0,1,1227.7,396.1Z"></path><path class="cls-11" d="M1227.7,396.1,1216.5,410a4.8,4.8,0,0,1-6.7.7l-.7-.7-4.5-5.5a20.2,20.2,0,0,0,14.9-13.5h5.7a3.1,3.1,0,0,1,3.2,3.1A2.7,2.7,0,0,1,1227.7,396.1Z"></path><path class="cls-10" d="M995.2,426.6h0l1.5-4.5.3-.9a28,28,0,0,0-13.5-33.9,215.3,215.3,0,0,1-29.9-18.9c-25.4-19.2-43-41.5-52.6-66.5A31.5,31.5,0,0,0,866.4,282l-1.7.3a21.3,21.3,0,0,0-17.5,24.5,26.8,26.8,0,0,0,.7,2.7c22.7,73.4,86.2,112.7,119.6,128.7a20.1,20.1,0,0,0,26.8-9.3Z"></path><path class="cls-11" d="M995.2,426.6l1.5-4.5.3-.9a27.9,27.9,0,0,0-13.5-33.9,216,216,0,0,1-29.9-19c-25.4-19.1-43-41.4-52.6-66.4A31.4,31.4,0,0,0,866.4,282l-1.7.3a21.2,21.2,0,0,0-14.6,9.8c14-3.1,30.3-2.4,37.1,14.1,13.1,32,51.7,66.8,82.8,85.5S995.4,425.9,995.2,426.6Z"></path><path class="cls-9" d="M869.7,218.3a7.3,7.3,0,0,0-9.6,10c1.9,3.6,6.4,14.5,3.6,22.4-1.2,3.7-4.1,6.4-8.6,8.4-17.6,7.4-31.3-16.6-31.4-16.8a7.2,7.2,0,1,0-12.6,7.1h0c6.9,12.3,26.1,33,49.6,23,8.3-3.5,14.1-9.4,16.8-17s2.2-14.6-.4-23.3a55.3,55.3,0,0,0-4.3-10.8A7.5,7.5,0,0,0,869.7,218.3Z"></path><path class="cls-9" d="M857.4,263.2a5.2,5.2,0,0,0-6.5,7l8.7,20.9a5.4,5.4,0,0,0,7,2.8,5.3,5.3,0,0,0,2.8-6.9l-8.8-20.9A5.4,5.4,0,0,0,857.4,263.2Z"></path><path class="cls-9" d="M1065.7,240.4a11.7,11.7,0,1,0-11.7,11.7h0A11.7,11.7,0,0,0,1065.7,240.4Z"></path><path class="cls-9" d="M1054,235.9h0a1.8,1.8,0,0,0,1.7-1.7V186.8a1.8,1.8,0,0,0-1.7-1.7h0a1.8,1.8,0,0,0-1.7,1.7v47.4a1.8,1.8,0,0,0,1.7,1.7Z"></path><path class="cls-9" d="M1201.9,240.4a11.7,11.7,0,1,0-11.7,11.7h0A11.8,11.8,0,0,0,1201.9,240.4Z"></path><rect class="cls-12" x="966.2" y="237.6" width="231.2" height="124.61" rx="24.8"></rect><rect class="cls-7" x="1013.6" y="237.6" width="231.2" height="124.61" rx="23.3"></rect><path class="cls-5" d="M1171.8,318.3h-94.6s9.6,20,52,20C1164.1,338.3,1171.8,318.3,1171.8,318.3Z"></path><rect class="cls-11" x="1026.4" y="262" width="199.3" height="43.68"></rect><rect class="cls-5" x="1187.1" y="280.3" width="4.6" height="4.55"></rect><rect class="cls-5" x="1192.8" y="280.3" width="4.6" height="4.55"></rect><rect class="cls-5" x="1192.8" y="286.2" width="4.6" height="4.55"></rect><rect class="cls-5" x="1198.8" y="280.3" width="4.6" height="4.55"></rect><rect class="cls-5" x="1181.3" y="280.3" width="4.6" height="4.55"></rect><rect class="cls-5" x="1181.3" y="286.2" width="4.6" height="4.55"></rect><rect class="cls-5" x="1175.5" y="280.3" width="4.6" height="4.55"></rect><rect class="cls-5" x="1187.1" y="274.4" width="4.6" height="4.55"></rect><rect class="cls-5" x="1187.1" y="269" width="4.6" height="4.55"></rect><rect class="cls-5" x="1181.3" y="274.4" width="4.6" height="4.55"></rect><rect class="cls-5" x="1192.8" y="274.4" width="4.6" height="4.55"></rect><rect class="cls-5" x="1187.1" y="286.2" width="4.6" height="4.55"></rect><rect class="cls-5" x="1187.1" y="292.2" width="4.6" height="4.55"></rect><rect class="cls-5" x="1065.6" y="280.3" width="4.6" height="4.55"></rect><rect class="cls-5" x="1071.3" y="280.3" width="4.6" height="4.55"></rect><rect class="cls-5" x="1071.3" y="286.2" width="4.6" height="4.55"></rect><rect class="cls-5" x="1077.3" y="280.3" width="4.6" height="4.55"></rect><rect class="cls-5" x="1059.8" y="280.3" width="4.6" height="4.55"></rect><rect class="cls-5" x="1059.8" y="286.2" width="4.6" height="4.55"></rect><rect class="cls-5" x="1054" y="280.3" width="4.6" height="4.55"></rect><rect class="cls-5" x="1065.6" y="274.4" width="4.6" height="4.55"></rect><rect class="cls-5" x="1065.6" y="269" width="4.6" height="4.55"></rect><rect class="cls-5" x="1059.8" y="274.4" width="4.6" height="4.55"></rect><rect class="cls-5" x="1071.3" y="274.4" width="4.6" height="4.55"></rect><rect class="cls-5" x="1065.6" y="286.2" width="4.6" height="4.55"></rect><rect class="cls-5" x="1065.6" y="292.2" width="4.6" height="4.55"></rect><path class="cls-9" d="M1190.2,235.9h0a1.8,1.8,0,0,0,1.7-1.7V186.8a1.8,1.8,0,0,0-1.7-1.7h0a1.8,1.8,0,0,0-1.7,1.7v47.4a1.8,1.8,0,0,0,1.7,1.7Z"></path><path class="cls-5" d="M1065.6,386.3a3.2,3.2,0,0,0-3.2-3.3,3.3,3.3,0,0,0-3.3,3.3,3.2,3.2,0,0,0,3.3,3.2h0a3.2,3.2,0,0,0,3.2-3.2Z"></path><path class="cls-5" d="M1051.7,386.3a3.3,3.3,0,0,0-3.3-3.3,3.2,3.2,0,0,0-3.2,3.3,3.2,3.2,0,0,0,3.2,3.2,3.2,3.2,0,0,0,3.3-3.2Z"></path><path class="cls-5" d="M1037.8,386.3a3.2,3.2,0,0,0-3.2-3.3,3.3,3.3,0,0,0-3.3,3.3,3.2,3.2,0,0,0,3.3,3.2,3.2,3.2,0,0,0,3.2-3.2Z"></path><path class="cls-13" d="M1181,154.2H995.2a49.7,49.7,0,0,1-49.7-49.8h285.3A49.8,49.8,0,0,1,1181,154.2Z"></path><path class="cls-13" d="M1417.7,1381.7H758.5c-35.4,0-64.3-30.4-64.3-67.7V144.1c0-37.4,28.9-67.8,64.3-67.8h659.2c35.5,0,64.3,30.4,64.3,67.8V1314C1482,1351.3,1453.2,1381.7,1417.7,1381.7ZM758.5,104.4c-20.7,0-37.6,17.8-37.6,39.7V1314c0,21.9,16.9,39.7,37.6,39.7h659.2c20.8,0,37.7-17.8,37.7-39.7V144.1c0-21.9-16.9-39.7-37.7-39.7Z"></path><path class="cls-13" d="M706.7,1285.3h762.8v22.3a59.6,59.6,0,0,1-59.6,59.6H744.3a37.5,37.5,0,0,1-37.6-37.5h0v-44.4Z"></path><g id="girl_2" data-name="girl 2"><path class="cls-14" d="M1531.2,731.5a89.1,89.1,0,0,1,80,22.8,237.7,237.7,0,0,1,29.2,33.4c23.4,32.7-21.5,65.1-15.5,76.2s19.8,19.9,13.8,43-46,53.2-59,54.6c-131.9,13.5-189.2-59.2-145.1-98.4s26.1-96.1,61.9-118.2A108.8,108.8,0,0,1,1531.2,731.5Z"></path><path class="cls-15" d="M1598.3,934.3s124.3,54.1,146.8,53.1,161.5-42.3,161.5-42.3l-3.5,23.9s-107.3,61.7-144.7,65.2-163.2-33.2-175.3-40.9S1562.9,942.1,1598.3,934.3Z"></path><path class="cls-16" d="M1613.4,993.4c-10.9,7.6-24.6,13.8-41.7,17.8-64.4,14.8-89.1-39.6-98.3-76.9a53.8,53.8,0,0,1,21.8-6.7c4.6-.6,9.5-.9,13.6-1.1,7.2-5.6,18-28.2,20.3-63.4l3,.8,50.8,13.9s-2.3,16.1-3.5,31.3c-.9,12-1,23.4,1.3,26.2l6.3,1.4h0A328.3,328.3,0,0,1,1613.4,993.4Z"></path><path class="cls-15" d="M1582.9,877.8s-2.3,16.1-3.4,31.4c-28.8-2.9-42.1-30.3-47.3-45.3Z"></path><path class="cls-16" d="M1591.5,892.9s-68.2-3.8-65.2-46.2-3.8-71.5,39.9-70.9,51,17.4,53.4,31.8S1609.3,892.8,1591.5,892.9Z"></path><path class="cls-14" d="M1619.3,783.8c-9.6-13.5-17.8-11.2-22.5-7.7-35.8-23.2-62,5.4-62,5.4-6.8,30.1-30,46-30,46s12,9.6,41,3.2c37-8.2,49.7-40.3,51.4-45.2,3.9,4,9,6.6,12.8,15.3,4.6,10.4,7.5,16.5,7.6,33.5C1617.7,834.3,1633.7,804.1,1619.3,783.8Z"></path><path class="cls-5" d="M1453.9,1132.1c-6.1-31.5-26.2-157.3-6.1-197.8,7.2-14.6,35.5-15.9,66.5-14.6,9.7,6.2,46.5,29.8,61.7,26.9l.8-.2c7.1-1.8,9.8-6.8,3.9-11.1a133.3,133.3,0,0,1,34.5,2.1c10.8,2,39.9,17.1,39.9,17.1s-14.7,26.5-36.3,35.6c3.7,32.9-1.8,47.4-35.9,123.3-28.8,64.2,3.9,122,3.9,122s-169.7,136.4-170.6,66.9C1415.5,1250,1461.8,1172.4,1453.9,1132.1Z"></path><path class="cls-12" d="M1595.2,1383.7a31.6,31.6,0,0,0,22.7-13.8l2.6-4c19.3-29.3,26.8-118.8,70.3-214.2,10.6-23.2,48.5-27.4,58.9-53.6,0,0,25.5-85.1-48.8-87.6S1502,1247.3,1500,1272.4,1450.9,1400,1595.2,1383.7Z"></path><path class="cls-14" d="M1890.4,1381.7H1784.7s-4-16.8,3-28.3,3.8-15.9-.8-24.3a42.2,42.2,0,0,0,17.9,3.3c5.2-.3,10.8-2.7,15.7-5.5,4.5,5.2,24,27.3,30.1,31.6S1888.3,1361.7,1890.4,1381.7Z"></path><path class="cls-12" d="M1752.1,1035.2c6.4,47.7,31.2,198.3,75.1,271.8,14.1,23.7-35.6,37-35.9,36.9-6.7-1.7-17.8-12.4-22.9-17-35.6-32.1-107.9-122.9-107.9-195.8,0-35.5-.6-103.3,25.2-120.6C1701.6,999.9,1749.6,1016.2,1752.1,1035.2Z"></path><path class="cls-7" d="M1532.2,1381.7s3.9-5.4,10.7-15.8c8.2-12.3,17.1-36.5,28-67.6s25.1-72.7,42.1-114.5c5.2-12.8,10.8-25.9,16.7-38.9,10.6-23.2,39.7-20,50-46.3,0,0,40.4-91-33.9-93.5s-215.4,243.5-223.5,267.3C1413.5,1298.4,1370.2,1406.7,1532.2,1381.7Z"></path><path class="cls-13" d="M1812.8,1381.7H1707.1s-3.9-16.8,3-28.3,3.8-15.9-.8-24.3a41.8,41.8,0,0,0,17.8,3.3c5.3-.3,10.9-2.7,15.8-5.5,4.5,5.2,24,27.3,30.1,31.6S1810.7,1361.7,1812.8,1381.7Z"></path><path class="cls-17" d="M1571,1298.3c11.5-32.6,25.1-72.7,42.1-114.5-4.5-31.6-14-59.2-30.2-70.4C1582.9,1113.4,1543.8,1234.4,1571,1298.3Z"></path><path class="cls-7" d="M1690.4,1031.8c6.4,47.7,15.3,201.7,59.2,275.2,14.1,23.7-35.6,37-35.9,36.9-6.7-1.7-17.8-12.4-22.9-17-35.6-32.1-107.9-122.9-107.9-195.8,0-35.5,41.7-100.5,67.5-117.7C1666.3,1002.8,1687.9,1012.8,1690.4,1031.8Z"></path><path class="cls-14" d="M1919.3,883.6,1811,872.1a7.1,7.1,0,0,0-7.3,4.5L1765,978.3a7.1,7.1,0,0,0,4.1,9.1,7.8,7.8,0,0,0,2.2.4l107.4,4.3a6.9,6.9,0,0,0,6.7-4.2l39.6-94.7a6.9,6.9,0,0,0-3.8-9.1A6.7,6.7,0,0,0,1919.3,883.6Z"></path><path class="cls-13" d="M1928.7,884.6l-108.3-11.5a7,7,0,0,0-7.3,4.4l-38.7,101.8a6.9,6.9,0,0,0,4.1,9,5,5,0,0,0,2.1.5l107.5,4.3a7,7,0,0,0,6.7-4.3l39.6-94.6a7,7,0,0,0-3.8-9.1A4.5,4.5,0,0,0,1928.7,884.6Z"></path><path class="cls-18" d="M1868.6,932.1c1.4-3.6-.5-6.6-4.1-6.6s-7.7,3-9,6.6.5,6.6,4.1,6.6S1867.3,935.7,1868.6,932.1Z"></path><path class="cls-18" d="M1925.4,894.2c.7-1.8-.3-3.2-2-3.2a5.1,5.1,0,0,0-4.5,3.2c-.6,1.8.3,3.2,2.1,3.2A5,5,0,0,0,1925.4,894.2Z"></path><path class="cls-16" d="M1473.3,934.3s150.1,55.2,172.6,54.1c14.6-.7,135.7-43.3,135.7-43.3l10.9,20.6s-117.9,75.7-150.3,75.4c-64-.8-172-40-184.1-47.8S1437.9,942.1,1473.3,934.3Z"></path><path class="cls-16" d="M1781.6,945.1s10.9-16.7,21.7-17.2,29.6,7.3,36,8.6,24.6,7.1,19.2,16-30.6,10.8-41.4,8.8-24.6,4.4-24.6,4.4Z"></path><path class="cls-16" d="M1800.4,928.4s17.2-7.9,22.1-9.4,4,0,2.5,4.7-10.3,9.1-10.3,10.6S1800.4,928.4,1800.4,928.4Z"></path><path class="cls-16" d="M1917.5,936.2s-10.8-17.2-14.4-17.9c-10.8-2.1-10.8,12.2-8.5,21.4s10.8,19.1,13.1,18.3S1920.1,945.3,1917.5,936.2Z"></path><path class="cls-16" d="M1917.9,939.7s3.5,19.2-14.8,29.3l5.4-13.3Z"></path><path class="cls-5" d="M1604.3,868.5s-6.5-2.5-24.6-1.1c0,0,1,7.1,14.3,7.8C1601.6,875.6,1604.3,868.5,1604.3,868.5Z"></path><path class="cls-5" d="M1550.7,961.5s-13.5,42.5-59.5,52.2c0,0-76.2-23.5-38.3-75.3C1452.9,938.4,1490.4,910.5,1550.7,961.5Z"></path></g><path class="cls-5" d="M905.5,1145a77.4,77.4,0,0,1-11.2,40h0a72.8,72.8,0,0,1-6.5,9.2c-1.6,1.8-3.2,3.6-4.9,5.3a75.1,75.1,0,0,1-13.6,10.8,76.6,76.6,0,0,1-36,11.6l-4.9.2a77.2,77.2,0,1,1,77.1-77.2Z"></path><path class="cls-7" d="M797.7,1177.6c-4.2-3.9-2.7-10.3-2.7-10.5l4.1,1.1-2-.6,2,.6s-.9,4,1.3,5.9Z"></path><path class="cls-7" d="M854.7,1177.6c4.3-3.9,2.7-10.3,2.7-10.5l-4.1,1.1,2-.6-2,.6s.9,4-1.3,5.9Z"></path><path class="cls-12" d="M869.3,1180.8v29.5a76.6,76.6,0,0,1-36,11.6l-4.9.2a77,77,0,0,1-67.5-39.8v-1.5a7.1,7.1,0,0,1,7.2-7.1h94.1A7.1,7.1,0,0,1,869.3,1180.8Z"></path><path class="cls-7" d="M894.3,1180.8v4.2a84.7,84.7,0,0,1-6.5,9.2c-1.6,1.8-3.2,3.6-4.9,5.3a75.1,75.1,0,0,1-13.6,10.8,76.6,76.6,0,0,1-36,11.6l-4.9.2a77.4,77.4,0,0,1-42.5-12.8v-28.5a7.1,7.1,0,0,1,7.1-7.1h94.2A7.1,7.1,0,0,1,894.3,1180.8Z"></path><rect class="cls-11" x="815.1" y="1169.3" width="34.4" height="4.35"></rect><rect class="cls-9" x="801.5" y="1169.3" width="19.9" height="4.35"></rect><path class="cls-9" d="M811.5,1114.4a5.3,5.3,0,1,0-5.3,5.3,5.3,5.3,0,0,0,5.3-5.3Z"></path><path class="cls-9" d="M806.2,1112.4h0a.8.8,0,0,0,.7-.8h0v-21.3a.8.8,0,0,0-.7-.8h0a.9.9,0,0,0-.8.8v21.3A.9.9,0,0,0,806.2,1112.4Z"></path><path class="cls-9" d="M872.8,1114.4a5.3,5.3,0,1,0-5.3,5.3h0A5.3,5.3,0,0,0,872.8,1114.4Z"></path><rect class="cls-12" x="766.6" y="1113.2" width="104.2" height="56.14" rx="11.2"></rect><rect class="cls-7" x="788" y="1113.2" width="104.2" height="56.14" rx="10.5"></rect><path class="cls-18" d="M859.2,1149.5H816.6s4.4,9,23.5,9C855.8,1158.6,859.2,1149.5,859.2,1149.5Z"></path><rect class="cls-11" x="793.8" y="1124.2" width="89.8" height="19.68"></rect><rect class="cls-18" x="866.1" y="1132.4" width="2" height="2.05"></rect><rect class="cls-18" x="868.7" y="1132.4" width="2" height="2.05"></rect><rect class="cls-18" x="868.7" y="1135.1" width="2" height="2.05"></rect><rect class="cls-18" x="871.4" y="1132.4" width="2" height="2.05"></rect><rect class="cls-18" x="863.5" y="1132.4" width="2" height="2.05"></rect><rect class="cls-18" x="863.5" y="1135.1" width="2" height="2.05"></rect><rect class="cls-18" x="860.9" y="1132.4" width="2" height="2.05"></rect><rect class="cls-18" x="866.1" y="1129.8" width="2" height="2.05"></rect><rect class="cls-18" x="866.1" y="1127.3" width="2" height="2.05"></rect><rect class="cls-18" x="863.5" y="1129.8" width="2" height="2.05"></rect><rect class="cls-18" x="868.7" y="1129.8" width="2" height="2.05"></rect><rect class="cls-18" x="866.1" y="1135.1" width="2" height="2.05"></rect><rect class="cls-18" x="866.1" y="1137.8" width="2" height="2.05"></rect><rect class="cls-18" x="811.4" y="1132.4" width="2" height="2.05"></rect><rect class="cls-18" x="814" y="1132.4" width="2" height="2.05"></rect><rect class="cls-18" x="814" y="1135.1" width="2" height="2.05"></rect><rect class="cls-18" x="816.7" y="1132.4" width="2" height="2.05"></rect><rect class="cls-18" x="808.8" y="1132.4" width="2" height="2.05"></rect><rect class="cls-18" x="808.8" y="1135.1" width="2" height="2.05"></rect><rect class="cls-18" x="806.2" y="1132.4" width="2" height="2.05"></rect><rect class="cls-18" x="811.4" y="1129.8" width="2" height="2.05"></rect><rect class="cls-18" x="811.4" y="1127.3" width="2" height="2.05"></rect><rect class="cls-18" x="808.8" y="1129.8" width="2" height="2.05"></rect><rect class="cls-18" x="814" y="1129.8" width="2" height="2.05"></rect><rect class="cls-18" x="811.4" y="1135.1" width="2" height="2.05"></rect><rect class="cls-18" x="811.4" y="1137.8" width="2" height="2.05"></rect><path class="cls-9" d="M867.5,1112.4h0a.9.9,0,0,0,.8-.8h0v-21.3a.9.9,0,0,0-.8-.8h0a.8.8,0,0,0-.7.8v21.3a.8.8,0,0,0,.7.8Z"></path><path class="cls-5" d="M811.4,1180.2a1.4,1.4,0,0,0-1.5-1.5,1.4,1.4,0,0,0-1.4,1.5,1.4,1.4,0,0,0,1.4,1.4h0a1.4,1.4,0,0,0,1.5-1.4Z"></path><path class="cls-5" d="M805.1,1180.2a1.4,1.4,0,0,0-1.4-1.5,1.4,1.4,0,0,0-1.5,1.5,1.4,1.4,0,0,0,1.4,1.4h.1a1.4,1.4,0,0,0,1.4-1.4Z"></path><path class="cls-5" d="M798.9,1180.2a1.5,1.5,0,0,0-1.5-1.5,1.4,1.4,0,0,0-1.4,1.5,1.4,1.4,0,0,0,1.4,1.4h0a1.5,1.5,0,0,0,1.5-1.4Z"></path><path class="cls-5" d="M1252.9,970.5a77.2,77.2,0,0,0,77.2,77.2l5-.2a77,77,0,0,0,49.5-22.4c1.7-1.7,3.3-3.5,4.9-5.4A77.1,77.1,0,1,0,1253,970.5Z"></path><path class="cls-14" d="M1285.2,1005.5a28.2,28.2,0,0,0,4.6,2.3l45.2,39.7a77.5,77.5,0,0,0,49.6-22.4,61.7,61.7,0,0,0,4.8-5.4,75.5,75.5,0,0,0,6.6-9.1,70.4,70.4,0,0,0-6-9c-12.4-16-22.6-21.5-19.8-42.2,1.5-11.3-5.7-51-31.5-53.1-2.2-.1-15.2-2.3-24.7.3C1291.1,913,1258.9,987.3,1285.2,1005.5Z"></path><path class="cls-16" d="M1312,1001c-.1,0,10.7,6.6,19.3,4.8s16.3-12.6,16.2-12.6c-3.3-.9-6.4-4.6-5-24.4l-1.5.2-26,3.4s.1,8.1-.4,15.7S1313.5,1000.4,1312,1001Z"></path><path class="cls-19" d="M1315,972.4s.1,8.1-.4,15.7c14.3.5,22.7-12.1,26.3-19.1Z"></path><path class="cls-16" d="M1309.8,979.3s33.8,2.7,35.1-18.4,6.7-34.9-14.8-37.5-26.3,5.1-28.4,12.1S1301,978,1309.8,979.3Z"></path><path class="cls-14" d="M1305.3,924.5s17.1,22.7,31.1,27.3,20.3,1.1,20.3,1.1a57.2,57.2,0,0,1-9.5-21.2,10.2,10.2,0,0,0-7-7.7C1330.2,920.9,1310.9,916.3,1305.3,924.5Z"></path><path class="cls-14" d="M1318.8,925.8s-8.5,5.3-11.8,9.8-6.4,15.9-5.7,20.9c0,0-6.3-23.7,2.1-32.7S1318.8,925.8,1318.8,925.8Z"></path><path class="cls-7" d="M1277.2,1026.7a76.4,76.4,0,0,0,52.8,20.9h5a77.5,77.5,0,0,0,49.6-22.4,61.7,61.7,0,0,0,4.8-5.4,99.3,99.3,0,0,0-7.4-13.6c-9.6-13.3-37.2-15-37.2-15h-.2c-10.5,6.2-17.4,8.2-22,8.2-6.7,0-8.2-4.3-8.5-5.3h0v-.3h0s-19.9,3.4-28.8,11.7a13.9,13.9,0,0,0-3.9,5.9Z"></path><rect class="cls-5" x="596" y="625.3" width="701" height="242.28" rx="36.8"></rect><path class="cls-1" d="M823.1,746.4a91,91,0,0,1-13.2,47.1h0a91.8,91.8,0,0,1-7.7,10.8,83.7,83.7,0,0,1-5.7,6.2A90.2,90.2,0,0,1,738.2,837l-5.8.2a90.7,90.7,0,1,1,90.7-90.7h0Z"></path><path class="cls-7" d="M696.3,784.8c-5-4.5-3.2-12-3.1-12.4l4.7,1.4-2.3-.7,2.3.7s-1,4.6,1.5,7Z"></path><path class="cls-7" d="M763.3,784.8c5-4.5,3.2-12,3.1-12.4l-4.7,1.4,2.3-.7-2.3.7s1,4.6-1.6,7Z"></path><path class="cls-12" d="M780.5,788.6v34.7A90.8,90.8,0,0,1,738.2,837l-5.8.2A90.9,90.9,0,0,1,653,790.4v-1.8a8.5,8.5,0,0,1,8.4-8.4H772.2A8.4,8.4,0,0,1,780.5,788.6Z"></path><path class="cls-7" d="M809.9,788.6v5a91.8,91.8,0,0,1-7.7,10.8c-1.8,2.1-3.7,4.2-5.7,6.2A90.6,90.6,0,0,1,738.2,837l-5.8.2a90.6,90.6,0,0,1-50-15V788.6a8.4,8.4,0,0,1,8.4-8.4H801.5A8.5,8.5,0,0,1,809.9,788.6Z"></path><rect class="cls-11" x="716.8" y="775.1" width="40.5" height="5.12"></rect><rect class="cls-9" x="700.7" y="775.1" width="23.4" height="5.12"></rect><circle class="cls-9" cx="706.2" cy="710.5" r="6.2"></circle><path class="cls-9" d="M706.2,708.1h0a.9.9,0,0,0,.9-.9V682.1a.9.9,0,0,0-.9-.9h0a.9.9,0,0,0-.9.9h0v25.1a.9.9,0,0,0,.9.9Z"></path><circle class="cls-9" cx="778.4" cy="710.5" r="6.2"></circle><rect class="cls-12" x="659.7" y="709.1" width="122.5" height="66.03" rx="13.1"></rect><rect class="cls-7" x="684.8" y="709.1" width="122.5" height="66.03" rx="12.3"></rect><path class="cls-18" d="M768.7,751.8H718.5s5.1,10.6,27.6,10.6C764.6,762.4,768.7,751.8,768.7,751.8Z"></path><rect class="cls-11" x="691.6" y="722" width="105.6" height="23.14"></rect><rect class="cls-18" x="776.8" y="731.7" width="2.4" height="2.41"></rect><rect class="cls-18" x="779.8" y="731.7" width="2.4" height="2.41"></rect><rect class="cls-18" x="779.8" y="734.8" width="2.4" height="2.41"></rect><rect class="cls-18" x="782.9" y="731.7" width="2.4" height="2.41"></rect><rect class="cls-18" x="773.7" y="731.7" width="2.4" height="2.41"></rect><rect class="cls-18" x="773.7" y="734.8" width="2.4" height="2.41"></rect><rect class="cls-18" x="770.6" y="731.7" width="2.4" height="2.41"></rect><rect class="cls-18" x="776.8" y="728.6" width="2.4" height="2.41"></rect><rect class="cls-18" x="776.8" y="725.7" width="2.4" height="2.41"></rect><rect class="cls-18" x="773.7" y="728.6" width="2.4" height="2.41"></rect><rect class="cls-18" x="779.8" y="728.6" width="2.4" height="2.41"></rect><rect class="cls-18" x="776.8" y="734.8" width="2.4" height="2.41"></rect><rect class="cls-18" x="776.8" y="738" width="2.4" height="2.41"></rect><rect class="cls-18" x="712.4" y="731.7" width="2.4" height="2.41"></rect><rect class="cls-18" x="715.4" y="731.7" width="2.4" height="2.41"></rect><rect class="cls-18" x="715.4" y="734.8" width="2.4" height="2.41"></rect><rect class="cls-18" x="718.6" y="731.7" width="2.4" height="2.41"></rect><rect class="cls-18" x="709.3" y="731.7" width="2.4" height="2.41"></rect><rect class="cls-18" x="709.3" y="734.8" width="2.4" height="2.41"></rect><rect class="cls-18" x="706.3" y="731.7" width="2.4" height="2.41"></rect><rect class="cls-18" x="712.4" y="728.6" width="2.4" height="2.41"></rect><rect class="cls-18" x="712.4" y="725.7" width="2.4" height="2.41"></rect><rect class="cls-18" x="709.3" y="728.6" width="2.4" height="2.41"></rect><rect class="cls-18" x="715.4" y="728.6" width="2.4" height="2.41"></rect><rect class="cls-18" x="712.4" y="734.8" width="2.4" height="2.41"></rect><rect class="cls-18" x="712.4" y="738" width="2.4" height="2.41"></rect><path class="cls-9" d="M778.4,708.1h0a.9.9,0,0,0,.9-.9h0V682.1a.9.9,0,0,0-.9-.9h0a.9.9,0,0,0-.9.9h0v25.1a.9.9,0,0,0,.9.9Z"></path><path class="cls-5" d="M712.4,787.8a1.8,1.8,0,0,0-1.7-1.7,1.8,1.8,0,0,0-1.8,1.7,1.7,1.7,0,0,0,1.8,1.7h0A1.7,1.7,0,0,0,712.4,787.8Z"></path><path class="cls-5" d="M705,787.8a1.8,1.8,0,0,0-1.7-1.7,1.8,1.8,0,0,0-1.8,1.7,1.7,1.7,0,0,0,1.8,1.7h0A1.7,1.7,0,0,0,705,787.8Z"></path><path class="cls-5" d="M697.7,787.8a1.8,1.8,0,0,0-1.7-1.7,1.8,1.8,0,0,0-1.8,1.7,1.7,1.7,0,0,0,1.7,1.7h.1A1.7,1.7,0,0,0,697.7,787.8Z"></path><rect class="cls-20" x="877" y="729.6" width="87.9" height="11.4"></rect><rect class="cls-20" x="877" y="752.4" width="109.6" height="11.4"></rect><rect class="cls-20" x="995.3" y="752.4" width="80.7" height="11.4"></rect><rect class="cls-20" x="877" y="774.7" width="80.7" height="11.4"></rect><rect class="cls-20" x="974.3" y="729.6" width="58.6" height="11.4"></rect><rect class="cls-20" x="1045.6" y="729.6" width="118.5" height="11.4"></rect><rect class="cls-20" x="877.9" y="673.2" width="124.5" height="16.14"></rect><rect class="cls-20" x="1016.1" y="673.2" width="172" height="16.14"></rect><rect class="cls-5" x="888.6" y="967.6" width="57.8" height="7.5"></rect><rect class="cls-5" x="888.6" y="982.6" width="72" height="7.5"></rect><rect class="cls-5" x="966.4" y="982.6" width="53.1" height="7.5"></rect><rect class="cls-5" x="888.6" y="997.3" width="53.1" height="7.5"></rect><rect class="cls-5" x="952.7" y="967.6" width="38.5" height="7.5"></rect><rect class="cls-5" x="999.5" y="967.6" width="77.9" height="7.5"></rect><rect class="cls-5" x="889.2" y="930.5" width="81.8" height="10.61"></rect><rect class="cls-5" x="980.1" y="930.5" width="113.1" height="10.61"></rect><rect class="cls-20" x="970.8" y="1148.7" width="57.8" height="7.5"></rect><rect class="cls-20" x="970.8" y="1163.7" width="72" height="7.5"></rect><rect class="cls-20" x="1048.6" y="1163.7" width="53.1" height="7.5"></rect><rect class="cls-20" x="970.8" y="1178.3" width="53.1" height="7.5"></rect><rect class="cls-20" x="1034.8" y="1148.7" width="38.5" height="7.5"></rect><rect class="cls-20" x="1081.7" y="1148.7" width="77.9" height="7.5"></rect><rect class="cls-20" x="971.4" y="1111.6" width="81.8" height="10.61"></rect><rect class="cls-20" x="1062.3" y="1111.6" width="113.1" height="10.61"></rect><path class="cls-13" d="M1388.8,174l-7.6,5.4-7.6-5.3a9.3,9.3,0,0,1,13-2.3A11.5,11.5,0,0,1,1388.8,174Z"></path><path class="cls-13" d="M1381.2,156.9a22.5,22.5,0,0,0-18.4,9.6l4.8,3.4a16.6,16.6,0,0,1,23.2-4.1,14.8,14.8,0,0,1,3.9,4l4.8-3.5A22.4,22.4,0,0,0,1381.2,156.9Z"></path><path class="cls-13" d="M1381.2,131.7a47.7,47.7,0,0,0-39,20.3l4.8,3.3a41.7,41.7,0,0,1,68.2-.2l4.8-3.4A47.6,47.6,0,0,0,1381.2,131.7Z"></path><path class="cls-13" d="M1381.2,145.5a33.8,33.8,0,0,0-27.8,14.4l4.8,3.3a28.3,28.3,0,0,1,39.4-6.6,28.6,28.6,0,0,1,6.5,6.5l4.8-3.5A34.4,34.4,0,0,0,1381.2,145.5Z"></path><rect class="cls-21" y="1381.1" width="2380.8" height="7.8" rx="3.2"></rect></g></g></g></g></svg> 